<svg xmlns="http://www.w3.org/2000/svg" width="43" height="43" viewBox="0 0 43 43"><defs><style>.a{fill:#fff;}.a,.b{stroke:#434343;}.b{fill:#434343;stroke-width:0.3px;}.c{stroke:none;}.d{fill:none;}</style></defs><g class="a" transform="translate(0)"><circle class="c" cx="21.5" cy="21.5" r="21.5"/><circle class="d" cx="21.5" cy="21.5" r="21"/></g><g transform="translate(15.273 13.5)"><path class="b" d="M9.966,16H2.654a.219.219,0,0,1-.216-.2L1.359,2.517a.219.219,0,0,1,.056-.167.212.212,0,0,1,.159-.071h9.472a.212.212,0,0,1,.159.071.223.223,0,0,1,.057.167L10.182,15.8a.218.218,0,0,1-.216.2m-7.112-.44H9.767L10.811,2.719h-9Z" transform="translate(0)"/><path class="b" d="M12.228,2.846h-12A.26.26,0,0,1,0,2.563a.26.26,0,0,1,.227-.284h12a.26.26,0,0,1,.227.284.259.259,0,0,1-.227.283"/><path class="b" d="M7.852,18.421a.283.283,0,0,1-.283-.283V4.535a.283.283,0,1,1,.566,0v13.6a.283.283,0,0,1-.283.283" transform="translate(-1.559 -3.962)"/><path class="b" d="M10.262,18.4h-.025a.284.284,0,0,1-.258-.307L11.167,4.536a.284.284,0,0,1,.565.049L10.544,18.136a.284.284,0,0,1-.282.259" transform="translate(-2.233 -3.962)"/><path class="b" d="M5.442,18.4a.284.284,0,0,1-.282-.259L3.972,4.585a.284.284,0,0,1,.258-.307.288.288,0,0,1,.307.258L5.725,18.087a.284.284,0,0,1-.258.307H5.442" transform="translate(-0.889 -3.962)"/><path class="b" d="M10.377,2.846a.283.283,0,0,1-.283-.283V.771a.205.205,0,0,0-.2-.2H5.65a.2.2,0,0,0-.2.2V2.563a.284.284,0,0,1-.567,0V.771A.772.772,0,0,1,5.65,0H9.889a.771.771,0,0,1,.771.771V2.563a.283.283,0,0,1-.283.283" transform="translate(-1.542)"/></g></svg>