<svg xmlns="http://www.w3.org/2000/svg" width="182" height="6" viewBox="0 0 182 6"><defs><style>.a{fill:#5c6268;}</style></defs><path class="a" d="M0,0H2V6H0Z"/><path class="a" d="M0,0H2V6H0Z" transform="translate(140)"/><path class="a" d="M0,0H2V6H0Z" transform="translate(80)"/><path class="a" d="M0,0H2V6H0Z" transform="translate(20)"/><path class="a" d="M0,0H2V6H0Z" transform="translate(160)"/><path class="a" d="M0,0H2V6H0Z" transform="translate(100)"/><path class="a" d="M0,0H2V6H0Z" transform="translate(60)"/><path class="a" d="M0,0H2V6H0Z" transform="translate(40)"/><path class="a" d="M0,0H2V6H0Z" transform="translate(180)"/><path class="a" d="M0,0H2V6H0Z" transform="translate(120)"/></svg>