<svg xmlns="http://www.w3.org/2000/svg" width="21.849" height="21.781" viewBox="0 0 21.849 21.781"><defs><style>.a,.b{fill:gray;stroke:gray;stroke-width:0.3px;}.b{stroke-linejoin:round;}</style></defs><g transform="translate(0.175 0.15)"><path class="a" d="M21.465,11.671a.279.279,0,0,1-.2-.086L11,.966.735,11.585a.276.276,0,0,1-.4,0,.3.3,0,0,1,0-.416L10.8.342a.286.286,0,0,1,.4,0L21.665,11.169a.3.3,0,0,1,0,.416.279.279,0,0,1-.2.086" transform="translate(-0.25 -0.26)"/><path class="b" d="M21.465,11.671a.279.279,0,0,1-.2-.086L11,.966.735,11.585a.276.276,0,0,1-.4,0,.3.3,0,0,1,0-.416L10.8.342a.286.286,0,0,1,.4,0L21.665,11.169a.3.3,0,0,1,0,.416A.279.279,0,0,1,21.465,11.671Z" transform="translate(-0.25 -0.26)"/><path class="a" d="M18.655,21.741H13.6a.289.289,0,0,1-.284-.294v-7.5H8.68v7.5a.289.289,0,0,1-.284.294H3.347a.288.288,0,0,1-.284-.294V8.721a.284.284,0,1,1,.567,0V21.153H8.112V13.658a.29.29,0,0,1,.285-.295H13.6a.29.29,0,0,1,.286.295v7.495h4.48V8.721a.284.284,0,1,1,.567,0V21.447a.288.288,0,0,1-.283.294" transform="translate(-0.25 -0.26)"/><path class="b" d="M18.655,21.741H13.6a.289.289,0,0,1-.284-.294v-7.5H8.68v7.5a.289.289,0,0,1-.284.294H3.347a.288.288,0,0,1-.284-.294V8.721a.284.284,0,1,1,.567,0V21.153H8.112V13.658a.29.29,0,0,1,.285-.295H13.6a.29.29,0,0,1,.286.295v7.495h4.48V8.721a.284.284,0,1,1,.567,0V21.447A.288.288,0,0,1,18.655,21.741Z" transform="translate(-0.25 -0.26)"/></g></svg>