<svg xmlns="http://www.w3.org/2000/svg" width="30" height="264.573" viewBox="0 0 30 264.573"><defs><style>.a,.b,.c{fill:silver;stroke:silver;stroke-width:0.3px;}.b{stroke-miterlimit:10;}.c{stroke-linejoin:round;}</style></defs><g transform="translate(6.211 246.851)"><g transform="translate(0 0)"><path class="a" d="M14.181,14.42H3.82a.241.241,0,0,1-.24-.243V3.823a.241.241,0,0,1,.24-.243h10.36a.241.241,0,0,1,.239.243V14.177a.241.241,0,0,1-.239.243M4.059,13.935h9.881V4.065H4.059Z" transform="translate(-0.211 -0.214)"/><path class="b" d="M14.181,14.42H3.82a.241.241,0,0,1-.24-.243V3.823a.241.241,0,0,1,.24-.243h10.36a.241.241,0,0,1,.239.243V14.177A.241.241,0,0,1,14.181,14.42ZM4.059,13.935h9.881V4.065H4.059Z" transform="translate(-0.211 -0.214)"/><path class="a" d="M17.55,4.819a.24.24,0,0,1-.239-.242V.7h-4.4a.242.242,0,0,1,0-.484H17.55a.24.24,0,0,1,.239.242V4.577a.24.24,0,0,1-.239.242" transform="translate(-0.211 -0.214)"/><path class="b" d="M17.55,4.819a.24.24,0,0,1-.239-.242V.7h-4.4a.242.242,0,0,1,0-.484H17.55a.24.24,0,0,1,.239.242V4.577A.24.24,0,0,1,17.55,4.819Z" transform="translate(-0.211 -0.214)"/><path class="a" d="M17.55,17.786H12.907a.243.243,0,0,1,0-.485h4.4V13.182a.239.239,0,1,1,.478,0v4.362a.24.24,0,0,1-.239.242" transform="translate(-0.211 -0.214)"/><path class="b" d="M17.55,17.786H12.907a.243.243,0,0,1,0-.485h4.4V13.182a.239.239,0,1,1,.478,0v4.362A.24.24,0,0,1,17.55,17.786Z" transform="translate(-0.211 -0.214)"/><path class="a" d="M4.652,17.786H.45a.241.241,0,0,1-.239-.242V13.182a.24.24,0,1,1,.479,0V17.3H4.652a.243.243,0,0,1,0,.485" transform="translate(-0.211 -0.214)"/><path class="b" d="M4.652,17.786H.45a.241.241,0,0,1-.239-.242V13.182a.24.24,0,1,1,.479,0V17.3H4.652a.243.243,0,0,1,0,.485Z" transform="translate(-0.211 -0.214)"/><path class="a" d="M.45,4.819a.24.24,0,0,1-.239-.242V.456A.24.24,0,0,1,.45.214h4.2a.242.242,0,0,1,0,.484H.69V4.577a.24.24,0,0,1-.239.242" transform="translate(-0.211 -0.214)"/><path class="b" d="M.45,4.819a.24.24,0,0,1-.239-.242V.456A.24.24,0,0,1,.45.214h4.2a.242.242,0,0,1,0,.484H.69V4.577A.24.24,0,0,1,.45,4.819Z" transform="translate(-0.211 -0.214)"/></g></g><g transform="translate(6.233 206.87)"><g transform="translate(0 0)"><path class="a" d="M17.156,17.42a.264.264,0,0,1-.186-.077L.658,1.032A.264.264,0,1,1,1.032.658l16.31,16.31a.264.264,0,0,1-.186.451" transform="translate(-0.233 -0.233)"/><path class="b" d="M17.156,17.42a.264.264,0,0,1-.186-.077L.658,1.032A.264.264,0,1,1,1.032.658l16.31,16.31a.264.264,0,0,1-.186.451Z" transform="translate(-0.233 -0.233)"/><path class="a" d="M.845,17.42a.264.264,0,0,1-.186-.451L16.968.658a.264.264,0,0,1,.374.374L1.031,17.342a.264.264,0,0,1-.186.077" transform="translate(-0.233 -0.233)"/><path class="b" d="M.845,17.42a.264.264,0,0,1-.186-.451L16.968.658a.264.264,0,0,1,.374.374L1.031,17.342A.264.264,0,0,1,.845,17.42Z" transform="translate(-0.233 -0.233)"/><path class="a" d="M16.821,4.826a.232.232,0,0,1-.044,0,.265.265,0,0,1-.217-.3l.621-3.7-3.7.621a.264.264,0,1,1-.087-.521L17.459.237a.264.264,0,0,1,.3.3l-.681,4.064a.264.264,0,0,1-.26.221" transform="translate(-0.233 -0.233)"/><path class="b" d="M16.821,4.826a.232.232,0,0,1-.044,0,.265.265,0,0,1-.217-.3l.621-3.7-3.7.621a.264.264,0,1,1-.087-.521L17.459.237a.264.264,0,0,1,.3.3l-.681,4.064A.264.264,0,0,1,16.821,4.826Z" transform="translate(-0.233 -0.233)"/><path class="a" d="M.5,17.767A.262.262,0,0,1,.31,17.69a.267.267,0,0,1-.074-.23l.681-4.065a.264.264,0,0,1,.521.088l-.621,3.7,3.7-.62a.264.264,0,1,1,.087.521l-4.064.681a.245.245,0,0,1-.044,0" transform="translate(-0.233 -0.233)"/><path class="b" d="M.5,17.767A.262.262,0,0,1,.31,17.69a.267.267,0,0,1-.074-.23l.681-4.065a.264.264,0,0,1,.521.088l-.621,3.7,3.7-.62a.264.264,0,1,1,.087.521l-4.064.681A.245.245,0,0,1,.5,17.767Z" transform="translate(-0.233 -0.233)"/><path class="a" d="M17.374,17.638a.232.232,0,0,1-.044,0l-4.065-.681a.264.264,0,1,1,.088-.521l3.7.62-.621-3.7a.264.264,0,0,1,.521-.088l.682,4.065a.265.265,0,0,1-.075.23.26.26,0,0,1-.186.077" transform="translate(-0.233 -0.233)"/><path class="b" d="M17.374,17.638a.232.232,0,0,1-.044,0l-4.065-.681a.264.264,0,1,1,.088-.521l3.7.62-.621-3.7a.264.264,0,0,1,.521-.088l.682,4.065a.265.265,0,0,1-.075.23A.26.26,0,0,1,17.374,17.638Z" transform="translate(-0.233 -0.233)"/><path class="a" d="M1.235,4.882a.264.264,0,0,1-.26-.22L.293.6a.264.264,0,0,1,.3-.3L4.662.974a.264.264,0,1,1-.087.521L.875.875l.621,3.7a.265.265,0,0,1-.217.3.232.232,0,0,1-.044,0" transform="translate(-0.233 -0.233)"/><path class="b" d="M1.235,4.882a.264.264,0,0,1-.26-.22L.293.6a.264.264,0,0,1,.3-.3L4.662.974a.264.264,0,1,1-.087.521L.875.875l.621,3.7a.265.265,0,0,1-.217.3A.232.232,0,0,1,1.235,4.882Z" transform="translate(-0.233 -0.233)"/></g></g><g transform="translate(6.258 166.897)"><g transform="translate(0 0)"><path class="a" d="M15.823,2.719H.55a.294.294,0,0,0-.293.295V18.445a.294.294,0,0,0,.293.3H15.823a.294.294,0,0,0,.293-.3V3.013a.294.294,0,0,0-.293-.295M.842,3.309h14.69v3.1l-.1.1a.2.2,0,0,0-.039.029l-5.362,5.7-3.7-2.847a.288.288,0,0,0-.35,0L.842,13.246ZM15.532,18.15H.842V13.98L6.145,10l3.738,2.873a.29.29,0,0,0,.388-.031l5.26-5.589Z" transform="translate(-0.258 -0.26)"/><path class="c" d="M15.823,2.719H.55a.294.294,0,0,0-.293.295V18.445a.294.294,0,0,0,.293.3H15.823a.294.294,0,0,0,.293-.3V3.013A.294.294,0,0,0,15.823,2.719ZM.842,3.309h14.69v3.1l-.1.1a.2.2,0,0,0-.039.029l-5.362,5.7-3.7-2.847a.288.288,0,0,0-.35,0L.842,13.246ZM15.532,18.15H.842V13.98L6.145,10l3.738,2.873a.29.29,0,0,0,.388-.031l5.26-5.589Z" transform="translate(-0.258 -0.26)"/><path class="a" d="M3.868,5.2A1.544,1.544,0,1,0,5.4,6.746,1.538,1.538,0,0,0,3.868,5.2m0,2.5a.954.954,0,1,1,.945-.953.951.951,0,0,1-.945.953" transform="translate(-0.258 -0.26)"/><path class="c" d="M3.868,5.2A1.544,1.544,0,1,0,5.4,6.746,1.538,1.538,0,0,0,3.868,5.2Zm0,2.5a.954.954,0,1,1,.945-.953A.951.951,0,0,1,3.868,7.7Z" transform="translate(-0.258 -0.26)"/><path class="a" d="M18.45.26H3.176a.3.3,0,0,0,0,.59H18.159V15.517a.292.292,0,1,0,.583,0V.555A.293.293,0,0,0,18.45.26" transform="translate(-0.258 -0.26)"/><path class="c" d="M18.45.26H3.176a.3.3,0,0,0,0,.59H18.159V15.517a.292.292,0,1,0,.583,0V.555A.293.293,0,0,0,18.45.26Z" transform="translate(-0.258 -0.26)"/></g></g><g transform="translate(6.208 126.843)"><g transform="translate(0 0)"><path class="a" d="M17.724,17.4,8.2,7.87.611.275A.236.236,0,0,0,.354.224.233.233,0,0,0,.208.439V17.562a.235.235,0,0,0,.236.234H17.556a.236.236,0,0,0,.218-.143.233.233,0,0,0-.05-.254M.679,17.329V1.006L3.353,3.681l-.708.7a.231.231,0,0,0,0,.33.238.238,0,0,0,.333,0l.706-.7L5.477,5.807l-.723.715a.231.231,0,0,0,0,.33.237.237,0,0,0,.333,0l.722-.714L7.7,8.034l-.637.63a.231.231,0,0,0,0,.33.237.237,0,0,0,.333,0l.635-.628,1.66,1.661-.659.652a.231.231,0,0,0,0,.33.238.238,0,0,0,.333,0l.657-.65,1.817,1.817-.647.64a.23.23,0,0,0,0,.329.238.238,0,0,0,.333,0l.644-.637,1.816,1.817-.634.627a.234.234,0,0,0,.333.33l.633-.625,2.673,2.674Z" transform="translate(-0.208 -0.206)"/><path class="b" d="M17.724,17.4,8.2,7.87.611.275A.236.236,0,0,0,.354.224.233.233,0,0,0,.208.439V17.562a.235.235,0,0,0,.236.234H17.556a.236.236,0,0,0,.218-.143A.233.233,0,0,0,17.724,17.4ZM.679,17.329V1.006L3.353,3.681l-.708.7a.231.231,0,0,0,0,.33.238.238,0,0,0,.333,0l.706-.7L5.477,5.807l-.723.715a.231.231,0,0,0,0,.33.237.237,0,0,0,.333,0l.722-.714L7.7,8.034l-.637.63a.231.231,0,0,0,0,.33.237.237,0,0,0,.333,0l.635-.628,1.66,1.661-.659.652a.231.231,0,0,0,0,.33.238.238,0,0,0,.333,0l.657-.65,1.817,1.817-.647.64a.23.23,0,0,0,0,.329.238.238,0,0,0,.333,0l.644-.637,1.816,1.817-.634.627a.234.234,0,0,0,.333.33l.633-.625,2.673,2.674Z" transform="translate(-0.208 -0.206)"/><path class="a" d="M2.979,7.166a.236.236,0,0,0-.257-.052.234.234,0,0,0-.146.215v7.455a.235.235,0,0,0,.236.234h7.45a.236.236,0,0,0,.217-.143.231.231,0,0,0-.049-.254Zm.068,7.386V7.9L9.7,14.552Z" transform="translate(-0.208 -0.206)"/><path class="b" d="M2.979,7.166a.236.236,0,0,0-.257-.052.234.234,0,0,0-.146.215v7.455a.235.235,0,0,0,.236.234h7.45a.236.236,0,0,0,.217-.143.231.231,0,0,0-.049-.254Zm.068,7.386V7.9L9.7,14.552Z" transform="translate(-0.208 -0.206)"/></g></g><g transform="translate(8 87.637)"><g transform="translate(0 0)"><path class="a" d="M.542,15.153H6.79a5.832,5.832,0,1,0,0-11.664H1.44L3.359,5.407a.424.424,0,0,1-.6.6L.124,3.371a.424.424,0,0,1,0-.6l.007-.006.006-.007L2.772.124a.424.424,0,0,1,.6.6L1.452,2.642H6.825A6.679,6.679,0,0,1,6.793,16H.542a.424.424,0,1,1,0-.847" transform="translate(0)"/></g></g><g transform="translate(8 47.637)"><g transform="translate(0 0)"><path class="a" d="M12.927,15.153H6.679a5.832,5.832,0,1,1,0-11.664h5.35L10.111,5.407a.424.424,0,0,0,.6.6l2.636-2.636a.424.424,0,0,0,0-.6l-.007-.006-.006-.007L10.7.124a.424.424,0,0,0-.6.6l1.919,1.919H6.644A6.679,6.679,0,0,0,6.677,16h6.25a.424.424,0,1,0,0-.847"/></g></g><g transform="translate(9.234 5.235)"><path class="a" d="M12.5,19.765H.5A.266.266,0,0,1,.234,19.5V2.541A.266.266,0,0,1,.5,2.274H7.736a.266.266,0,0,1,0,.533H.763V19.232H12.238V2.807H10.031a.266.266,0,0,1,0-.533H12.5a.265.265,0,0,1,.264.267V19.5a.265.265,0,0,1-.264.266" transform="translate(-0.234 -0.235)"/><path class="b" d="M12.5,19.765H.5A.266.266,0,0,1,.234,19.5V2.541A.266.266,0,0,1,.5,2.274H7.736a.266.266,0,0,1,0,.533H.763V19.232H12.238V2.807H10.031a.266.266,0,0,1,0-.533H12.5a.265.265,0,0,1,.264.267V19.5A.265.265,0,0,1,12.5,19.765Z" transform="translate(-0.234 -0.235)"/><path class="a" d="M10.031,5.116h-2.3a.266.266,0,0,1-.264-.266V.5A.266.266,0,0,1,7.735.235h2.3A.266.266,0,0,1,10.3.5V4.85a.266.266,0,0,1-.264.266M8,4.583H9.765V.768H8Z" transform="translate(-0.234 -0.235)"/><path class="b" d="M10.031,5.116h-2.3a.266.266,0,0,1-.264-.266V.5A.266.266,0,0,1,7.735.235h2.3A.266.266,0,0,1,10.3.5V4.85A.266.266,0,0,1,10.031,5.116ZM8,4.583H9.765V.768H8Z" transform="translate(-0.234 -0.235)"/><path class="a" d="M10.031,7.941H2.922a.266.266,0,0,1,0-.533h7.109a.266.266,0,0,1,0,.533" transform="translate(-0.234 -0.235)"/><path class="b" d="M10.031,7.941H2.922a.266.266,0,0,1,0-.533h7.109a.266.266,0,0,1,0,.533Z" transform="translate(-0.234 -0.235)"/><path class="a" d="M10.031,12.537H2.922a.266.266,0,0,1,0-.533h7.109a.266.266,0,0,1,0,.533" transform="translate(-0.234 -0.235)"/><path class="b" d="M10.031,12.537H2.922a.266.266,0,0,1,0-.533h7.109a.266.266,0,0,1,0,.533Z" transform="translate(-0.234 -0.235)"/><path class="a" d="M10.031,17.4H2.922a.266.266,0,0,1,0-.533h7.109a.266.266,0,0,1,0,.533" transform="translate(-0.234 -0.235)"/><path class="b" d="M10.031,17.4H2.922a.266.266,0,0,1,0-.533h7.109a.266.266,0,0,1,0,.533Z" transform="translate(-0.234 -0.235)"/></g></svg>