<svg xmlns="http://www.w3.org/2000/svg" xmlns:xlink="http://www.w3.org/1999/xlink" width="16" height="16" viewBox="0 0 16 16"><defs><style>.a,.c{fill:#fff;stroke:rgba(255,255,255,0);stroke-width:0.4px;}.b{clip-path:url(#a);}.c{stroke-linejoin:round;}</style><clipPath id="a"><rect class="a" width="16" height="16"/></clipPath></defs><g class="b"><path class="a" d="M8,15.813A7.813,7.813,0,1,1,15.813,8,7.822,7.822,0,0,1,8,15.813M8,.612A7.389,7.389,0,1,0,15.389,8,7.4,7.4,0,0,0,8,.612" transform="translate(0 0)"/><path class="c" d="M8,15.813A7.813,7.813,0,1,1,15.813,8,7.822,7.822,0,0,1,8,15.813ZM8,.612A7.389,7.389,0,1,0,15.389,8,7.4,7.4,0,0,0,8,.612Z" transform="translate(0 0)"/><path class="a" d="M8,12.738a.212.212,0,0,1-.212-.212V3.581a.212.212,0,1,1,.424,0v8.944A.212.212,0,0,1,8,12.738" transform="translate(0 0)"/><path class="c" d="M8,12.738a.212.212,0,0,1-.212-.212V3.581a.212.212,0,1,1,.424,0v8.944A.212.212,0,0,1,8,12.738Z" transform="translate(0 0)"/><path class="a" d="M12.472,8.265H3.528a.212.212,0,0,1,0-.424h8.944a.212.212,0,0,1,0,.424" transform="translate(0 0)"/><path class="c" d="M12.472,8.265H3.528a.212.212,0,0,1,0-.424h8.944a.212.212,0,0,1,0,.424Z" transform="translate(0 0)"/></g></svg>