<svg xmlns="http://www.w3.org/2000/svg" xmlns:xlink="http://www.w3.org/1999/xlink" width="14.154" height="17" viewBox="0 0 14.154 17"><defs><style>.a,.e{fill:none;}.b{fill:silver;}.c{clip-path:url(#a);}.d{fill:#5c6268;}.e{stroke:#5c6268;stroke-linejoin:round;stroke-width:0.502px;}</style><clipPath id="a"><rect class="a" width="14" height="17"/></clipPath></defs><g transform="translate(0.154)"><g class="c"><path class="d" d="M13.463,16.75a.285.285,0,0,0,.286-.284V3.987a.284.284,0,0,0-.088-.2l-3.6-3.45,0,0A.309.309,0,0,0,10.016.3a.282.282,0,0,0-.046-.03A.289.289,0,0,0,9.861.25H.538A.285.285,0,0,0,.252.535V16.466a.285.285,0,0,0,.286.284ZM10.146,1.2l2.61,2.5h-2.61ZM.823.818H9.575V3.987a.285.285,0,0,0,.286.283h3.317V16.183H.823Z" transform="translate(-0.406 0)"/><path class="e" d="M13.463,16.75a.285.285,0,0,0,.286-.284V3.987a.284.284,0,0,0-.088-.2l-3.6-3.45,0,0A.309.309,0,0,0,10.016.3a.282.282,0,0,0-.046-.03A.289.289,0,0,0,9.861.25H.538A.285.285,0,0,0,.252.535V16.466a.285.285,0,0,0,.286.284ZM10.146,1.2l2.61,2.5h-2.61ZM.823.818H9.575V3.987a.285.285,0,0,0,.286.283h3.317V16.183H.823Z" transform="translate(-0.406 0)"/><path class="d" d="M9.069,7.263,5.575,10.737l-.611-.891a.286.286,0,0,0-.4-.074.282.282,0,0,0-.076.394l.8,1.173a.283.283,0,0,0,.209.122l.027,0a.29.29,0,0,0,.2-.083L9.473,7.664a.282.282,0,0,0,0-.4.286.286,0,0,0-.4,0" transform="translate(-0.406 0)"/><path class="e" d="M9.069,7.263,5.575,10.737l-.611-.891a.286.286,0,0,0-.4-.074.282.282,0,0,0-.076.394l.8,1.173a.283.283,0,0,0,.209.122l.027,0a.29.29,0,0,0,.2-.083L9.473,7.664a.282.282,0,0,0,0-.4A.286.286,0,0,0,9.069,7.263Z" transform="translate(-0.406 0)"/></g></g><path class="b" d="M.285,16.5A.284.284,0,0,1,0,16.216V.284A.285.285,0,0,1,.285,0H9.608a.28.28,0,0,1,.109.022.271.271,0,0,1,.047.03A.45.45,0,0,1,9.806.08l0,0,3.6,3.45a.282.282,0,0,1,.087.2V16.216a.284.284,0,0,1-.285.283Zm.285-.567H12.926V4.02H9.608a.284.284,0,0,1-.285-.283V.568H.571ZM9.894,3.453H12.5L9.894.951Zm-4.64,7.758a.287.287,0,0,1-.21-.123l-.8-1.173a.283.283,0,0,1,.076-.4.286.286,0,0,1,.4.075l.611.891L8.817,7.013a.286.286,0,0,1,.4,0,.283.283,0,0,1,0,.4L5.483,11.13a.289.289,0,0,1-.2.083Z" transform="translate(0 0.25)"/></svg>