<svg xmlns="http://www.w3.org/2000/svg" width="20.007" height="20.039" viewBox="0 0 20.007 20.039"><defs><style>.a{fill:#5c6268;stroke:#5c6268;stroke-linejoin:round;stroke-width:0.94px;}.b{fill:#fff;}</style></defs><g transform="translate(0.47 0.516)"><g transform="translate(0 0)"><path class="a" d="M1502.587,1207.923a.26.26,0,0,1-.165-.059c-.383-.312-9.367-7.723-9.367-13.75,0-2.639,1.339-4.6,3.493-5.115a5.636,5.636,0,0,1,6.035,2.98,5.558,5.558,0,0,1,5.994-2.946c2.614.6,3.545,3.02,3.545,5.081,0,2.543-1.582,5.633-4.7,9.187a44.664,44.664,0,0,1-4.667,4.563A.266.266,0,0,1,1502.587,1207.923Zm-4.918-18.522a4.27,4.27,0,0,0-1,.12c-1.933.463-3.086,2.18-3.086,4.593,0,5.336,7.762,12.139,9,13.192,1.243-1.053,9-7.856,9-13.192,0-2.4-1.172-4.1-3.133-4.557a5.1,5.1,0,0,0-5.632,3.107.263.263,0,0,1-.236.151.267.267,0,0,1-.239-.148A5.553,5.553,0,0,0,1497.669,1189.4Z" transform="translate(-1493.054 -1188.87)"/></g><path class="b" d="M9.367,18.994C8.984,18.682,0,11.271,0,5.244,0,2.605,1.339.646,3.493.129a5.637,5.637,0,0,1,6.034,2.98A5.559,5.559,0,0,1,15.521.163c2.613.6,3.545,3.02,3.545,5.081,0,2.543-1.582,5.633-4.7,9.187A44.626,44.626,0,0,1,9.7,18.994a.266.266,0,0,1-.167.058A.26.26,0,0,1,9.367,18.994ZM3.615.651C1.682,1.115.529,2.832.529,5.244c0,5.336,7.762,12.139,9,13.192,1.243-1.053,9.005-7.856,9.005-13.192,0-2.4-1.172-4.1-3.134-4.558A5.1,5.1,0,0,0,9.771,3.794a.264.264,0,0,1-.237.151A.267.267,0,0,1,9.3,3.8,5.554,5.554,0,0,0,4.614.532,4.3,4.3,0,0,0,3.615.651Z" transform="translate(0)"/></g></svg>